<?xml version="1.0" encoding="UTF-8"?>
<!DOCTYPE svg PUBLIC "-//W3C//DTD SVG 1.1//EN" "http://www.w3.org/Graphics/SVG/1.1/DTD/svg11.dtd">
<svg xmlns="http://www.w3.org/2000/svg" version="1.1" width="48px" height="48px" style="shape-rendering:geometricPrecision; text-rendering:geometricPrecision; image-rendering:optimizeQuality; fill-rule:evenodd; clip-rule:evenodd" xmlns:xlink="http://www.w3.org/1999/xlink">
<g><path style="opacity:1" fill="#062a6a" d="M 23.5,-0.5 C 28.5,-0.5 33.5,-0.5 38.5,-0.5C 38.5,0.5 38.5,1.5 38.5,2.5C 34.5,2.5 30.5,2.5 26.5,2.5C 26.5,3.5 26.5,4.5 26.5,5.5C 25.5,5.5 24.5,5.5 23.5,5.5C 23.5,3.5 23.5,1.5 23.5,-0.5 Z"/></g>
<g><path style="opacity:1" fill="#ad15ed" d="M 38.5,2.5 C 38.5,4.5 38.5,6.5 38.5,8.5C 36.5,8.5 34.5,8.5 32.5,8.5C 32.5,7.5 32.5,6.5 32.5,5.5C 30.5,5.5 28.5,5.5 26.5,5.5C 26.5,4.5 26.5,3.5 26.5,2.5C 30.5,2.5 34.5,2.5 38.5,2.5 Z"/></g>
<g><path style="opacity:1" fill="#062a6a" d="M 38.5,2.5 C 39.5,2.5 40.5,2.5 41.5,2.5C 41.5,4.5 41.5,6.5 41.5,8.5C 40.5,8.5 39.5,8.5 38.5,8.5C 38.5,6.5 38.5,4.5 38.5,2.5 Z"/></g>
<g><path style="opacity:1" fill="#2a4da5" d="M 17.5,8.5 C 14.5,8.5 11.5,8.5 8.5,8.5C 8.5,9.5 8.5,10.5 8.5,11.5C 7.5,11.5 6.5,11.5 5.5,11.5C 5.5,14.5 5.5,17.5 5.5,20.5C 4.5,20.5 3.5,20.5 2.5,20.5C 2.5,18.5 2.5,16.5 2.5,14.5C 2.5,12.5 2.5,10.5 2.5,8.5C 3.5,8.5 4.5,8.5 5.5,8.5C 5.5,7.5 5.5,6.5 5.5,5.5C 6.5,5.5 7.5,5.5 8.5,5.5C 8.5,4.5 8.5,3.5 8.5,2.5C 10.5,2.5 12.5,2.5 14.5,2.5C 14.5,3.5 14.5,4.5 14.5,5.5C 15.5,5.5 16.5,5.5 17.5,5.5C 17.5,6.5 17.5,7.5 17.5,8.5 Z"/></g>
<g><path style="opacity:1" fill="#062a6a" d="M 26.5,5.5 C 28.5,5.5 30.5,5.5 32.5,5.5C 32.5,6.5 32.5,7.5 32.5,8.5C 30.5,8.5 28.5,8.5 26.5,8.5C 26.5,7.5 26.5,6.5 26.5,5.5 Z"/></g>
<g><path style="opacity:1" fill="#89a6f5" d="M 17.5,8.5 C 17.5,10.5 17.5,12.5 17.5,14.5C 16.5,14.5 15.5,14.5 14.5,14.5C 14.5,13.5 14.5,12.5 14.5,11.5C 12.5,11.5 10.5,11.5 8.5,11.5C 8.5,10.5 8.5,9.5 8.5,8.5C 11.5,8.5 14.5,8.5 17.5,8.5 Z"/></g>
<g><path style="opacity:1" fill="#062a6a" d="M 17.5,8.5 C 18.5,8.5 19.5,8.5 20.5,8.5C 20.5,10.5 20.5,12.5 20.5,14.5C 19.5,14.5 18.5,14.5 17.5,14.5C 17.5,12.5 17.5,10.5 17.5,8.5 Z"/></g>
<g><path style="opacity:1" fill="#062a6a" d="M 26.5,8.5 C 26.5,11.5 26.5,14.5 26.5,17.5C 25.5,17.5 24.5,17.5 23.5,17.5C 23.5,14.5 23.5,11.5 23.5,8.5C 24.5,8.5 25.5,8.5 26.5,8.5 Z"/></g>
<g><path style="opacity:1" fill="#8aa8f5" d="M 26.5,8.5 C 28.5,8.5 30.5,8.5 32.5,8.5C 34.5,8.5 36.5,8.5 38.5,8.5C 39.5,8.5 40.5,8.5 41.5,8.5C 41.5,10.5 41.5,12.5 41.5,14.5C 40.5,14.5 39.5,14.5 38.5,14.5C 37.5,14.5 36.5,14.5 35.5,14.5C 35.5,13.5 35.5,12.5 35.5,11.5C 34.5,11.5 33.5,11.5 32.5,11.5C 32.5,14.5 32.5,17.5 32.5,20.5C 34.5,20.5 36.5,20.5 38.5,20.5C 38.5,21.5 38.5,22.5 38.5,23.5C 39.5,23.5 40.5,23.5 41.5,23.5C 41.5,24.5 41.5,25.5 41.5,26.5C 42.5,26.5 43.5,26.5 44.5,26.5C 44.5,29.5 44.5,32.5 44.5,35.5C 42.5,35.5 40.5,35.5 38.5,35.5C 38.5,34.5 38.5,33.5 38.5,32.5C 37.5,32.5 36.5,32.5 35.5,32.5C 35.5,33.5 35.5,34.5 35.5,35.5C 34.5,35.5 33.5,35.5 32.5,35.5C 32.5,34.5 32.5,33.5 32.5,32.5C 31.5,32.5 30.5,32.5 29.5,32.5C 29.5,30.5 29.5,28.5 29.5,26.5C 28.5,26.5 27.5,26.5 26.5,26.5C 26.5,28.5 26.5,30.5 26.5,32.5C 22.5,32.5 18.5,32.5 14.5,32.5C 14.5,31.5 14.5,30.5 14.5,29.5C 15.5,29.5 16.5,29.5 17.5,29.5C 17.5,28.5 17.5,27.5 17.5,26.5C 15.5,26.5 13.5,26.5 11.5,26.5C 11.5,25.5 11.5,24.5 11.5,23.5C 10.5,23.5 9.5,23.5 8.5,23.5C 7.5,23.5 6.5,23.5 5.5,23.5C 5.5,22.5 5.5,21.5 5.5,20.5C 5.5,17.5 5.5,14.5 5.5,11.5C 6.5,11.5 7.5,11.5 8.5,11.5C 8.5,13.5 8.5,15.5 8.5,17.5C 9.5,17.5 10.5,17.5 11.5,17.5C 11.5,18.5 11.5,19.5 11.5,20.5C 13.5,20.5 15.5,20.5 17.5,20.5C 17.5,21.5 17.5,22.5 17.5,23.5C 18.5,23.5 19.5,23.5 20.5,23.5C 20.5,24.5 20.5,25.5 20.5,26.5C 21.5,26.5 22.5,26.5 23.5,26.5C 23.5,24.5 23.5,22.5 23.5,20.5C 23.5,19.5 23.5,18.5 23.5,17.5C 24.5,17.5 25.5,17.5 26.5,17.5C 26.5,14.5 26.5,11.5 26.5,8.5 Z"/></g>
<g><path style="opacity:1" fill="#062a6a" d="M 41.5,8.5 C 42.5,8.5 43.5,8.5 44.5,8.5C 44.5,10.5 44.5,12.5 44.5,14.5C 43.5,14.5 42.5,14.5 41.5,14.5C 41.5,12.5 41.5,10.5 41.5,8.5 Z"/></g>
<g><path style="opacity:1" fill="#062a6a" d="M 8.5,11.5 C 10.5,11.5 12.5,11.5 14.5,11.5C 14.5,12.5 14.5,13.5 14.5,14.5C 13.5,14.5 12.5,14.5 11.5,14.5C 11.5,15.5 11.5,16.5 11.5,17.5C 10.5,17.5 9.5,17.5 8.5,17.5C 8.5,15.5 8.5,13.5 8.5,11.5 Z"/></g>
<g><path style="opacity:1" fill="#f9af00" d="M 38.5,14.5 C 39.5,14.5 40.5,14.5 41.5,14.5C 42.5,14.5 43.5,14.5 44.5,14.5C 44.5,15.5 44.5,16.5 44.5,17.5C 42.5,17.5 40.5,17.5 38.5,17.5C 38.5,16.5 38.5,15.5 38.5,14.5 Z"/></g>
<g><path style="opacity:1" fill="#062a6a" d="M 44.5,14.5 C 45.5,14.5 46.5,14.5 47.5,14.5C 47.5,15.5 47.5,16.5 47.5,17.5C 46.5,17.5 45.5,17.5 44.5,17.5C 44.5,16.5 44.5,15.5 44.5,14.5 Z"/></g>
<g><path style="opacity:1" fill="#062a6a" d="M 11.5,17.5 C 15.5,17.5 19.5,17.5 23.5,17.5C 23.5,18.5 23.5,19.5 23.5,20.5C 21.5,20.5 19.5,20.5 17.5,20.5C 15.5,20.5 13.5,20.5 11.5,20.5C 11.5,19.5 11.5,18.5 11.5,17.5 Z"/></g>
<g><path style="opacity:1" fill="#1c3f8e" d="M 38.5,14.5 C 38.5,15.5 38.5,16.5 38.5,17.5C 40.5,17.5 42.5,17.5 44.5,17.5C 44.5,19.5 44.5,21.5 44.5,23.5C 45.5,23.5 46.5,23.5 47.5,23.5C 47.5,27.5 47.5,31.5 47.5,35.5C 46.5,35.5 45.5,35.5 44.5,35.5C 44.5,32.5 44.5,29.5 44.5,26.5C 43.5,26.5 42.5,26.5 41.5,26.5C 41.5,25.5 41.5,24.5 41.5,23.5C 40.5,23.5 39.5,23.5 38.5,23.5C 38.5,22.5 38.5,21.5 38.5,20.5C 36.5,20.5 34.5,20.5 32.5,20.5C 32.5,17.5 32.5,14.5 32.5,11.5C 33.5,11.5 34.5,11.5 35.5,11.5C 35.5,12.5 35.5,13.5 35.5,14.5C 36.5,14.5 37.5,14.5 38.5,14.5 Z"/></g>
<g><path style="opacity:1" fill="#4b70e1" d="M 17.5,20.5 C 19.5,20.5 21.5,20.5 23.5,20.5C 23.5,22.5 23.5,24.5 23.5,26.5C 22.5,26.5 21.5,26.5 20.5,26.5C 20.5,25.5 20.5,24.5 20.5,23.5C 19.5,23.5 18.5,23.5 17.5,23.5C 17.5,22.5 17.5,21.5 17.5,20.5 Z"/></g>
<g><path style="opacity:1" fill="#5678e4" d="M 8.5,23.5 C 9.5,23.5 10.5,23.5 11.5,23.5C 11.5,24.5 11.5,25.5 11.5,26.5C 11.5,29.5 11.5,32.5 11.5,35.5C 12.5,35.5 13.5,35.5 14.5,35.5C 14.5,36.5 14.5,37.5 14.5,38.5C 12.5,38.5 10.5,38.5 8.5,38.5C 8.5,37.5 8.5,36.5 8.5,35.5C 7.5,35.5 6.5,35.5 5.5,35.5C 5.5,32.5 5.5,29.5 5.5,26.5C 6.5,26.5 7.5,26.5 8.5,26.5C 8.5,25.5 8.5,24.5 8.5,23.5 Z"/></g>
<g><path style="opacity:1" fill="#466bdb" d="M 38.5,35.5 C 38.5,36.5 38.5,37.5 38.5,38.5C 36.5,38.5 34.5,38.5 32.5,38.5C 32.5,39.5 32.5,40.5 32.5,41.5C 29.5,41.5 26.5,41.5 23.5,41.5C 23.5,40.5 23.5,39.5 23.5,38.5C 22.5,38.5 21.5,38.5 20.5,38.5C 20.5,37.5 20.5,36.5 20.5,35.5C 22.5,35.5 24.5,35.5 26.5,35.5C 26.5,34.5 26.5,33.5 26.5,32.5C 26.5,30.5 26.5,28.5 26.5,26.5C 27.5,26.5 28.5,26.5 29.5,26.5C 29.5,28.5 29.5,30.5 29.5,32.5C 30.5,32.5 31.5,32.5 32.5,32.5C 32.5,33.5 32.5,34.5 32.5,35.5C 33.5,35.5 34.5,35.5 35.5,35.5C 35.5,34.5 35.5,33.5 35.5,32.5C 36.5,32.5 37.5,32.5 38.5,32.5C 38.5,33.5 38.5,34.5 38.5,35.5 Z"/></g>
<g><path style="opacity:1" fill="#08317b" d="M -0.5,14.5 C 0.5,14.5 1.5,14.5 2.5,14.5C 2.5,16.5 2.5,18.5 2.5,20.5C 3.5,20.5 4.5,20.5 5.5,20.5C 5.5,21.5 5.5,22.5 5.5,23.5C 6.5,23.5 7.5,23.5 8.5,23.5C 8.5,24.5 8.5,25.5 8.5,26.5C 7.5,26.5 6.5,26.5 5.5,26.5C 5.5,29.5 5.5,32.5 5.5,35.5C 6.5,35.5 7.5,35.5 8.5,35.5C 8.5,36.5 8.5,37.5 8.5,38.5C 10.5,38.5 12.5,38.5 14.5,38.5C 14.5,37.5 14.5,36.5 14.5,35.5C 13.5,35.5 12.5,35.5 11.5,35.5C 11.5,32.5 11.5,29.5 11.5,26.5C 13.5,26.5 15.5,26.5 17.5,26.5C 17.5,27.5 17.5,28.5 17.5,29.5C 16.5,29.5 15.5,29.5 14.5,29.5C 14.5,30.5 14.5,31.5 14.5,32.5C 18.5,32.5 22.5,32.5 26.5,32.5C 26.5,33.5 26.5,34.5 26.5,35.5C 24.5,35.5 22.5,35.5 20.5,35.5C 20.5,36.5 20.5,37.5 20.5,38.5C 21.5,38.5 22.5,38.5 23.5,38.5C 23.5,39.5 23.5,40.5 23.5,41.5C 26.5,41.5 29.5,41.5 32.5,41.5C 32.5,40.5 32.5,39.5 32.5,38.5C 34.5,38.5 36.5,38.5 38.5,38.5C 38.5,37.5 38.5,36.5 38.5,35.5C 40.5,35.5 42.5,35.5 44.5,35.5C 44.5,36.5 44.5,37.5 44.5,38.5C 43.5,38.5 42.5,38.5 41.5,38.5C 41.5,39.5 41.5,40.5 41.5,41.5C 39.5,41.5 37.5,41.5 35.5,41.5C 35.5,43.5 35.5,45.5 35.5,47.5C 34.5,47.5 33.5,47.5 32.5,47.5C 32.5,46.5 32.5,45.5 32.5,44.5C 31.5,44.5 30.5,44.5 29.5,44.5C 29.5,45.5 29.5,46.5 29.5,47.5C 28.5,47.5 27.5,47.5 26.5,47.5C 26.5,46.5 26.5,45.5 26.5,44.5C 24.5,44.5 22.5,44.5 20.5,44.5C 20.5,43.5 20.5,42.5 20.5,41.5C 19.5,41.5 18.5,41.5 17.5,41.5C 17.5,43.5 17.5,45.5 17.5,47.5C 16.5,47.5 15.5,47.5 14.5,47.5C 14.5,45.5 14.5,43.5 14.5,41.5C 11.5,41.5 8.5,41.5 5.5,41.5C 5.5,40.5 5.5,39.5 5.5,38.5C 4.5,38.5 3.5,38.5 2.5,38.5C 2.5,36.5 2.5,34.5 2.5,32.5C 1.5,32.5 0.5,32.5 -0.5,32.5C -0.5,30.5 -0.5,28.5 -0.5,26.5C 0.5,26.5 1.5,26.5 2.5,26.5C 2.5,25.5 2.5,24.5 2.5,23.5C 1.5,23.5 0.5,23.5 -0.5,23.5C -0.5,20.5 -0.5,17.5 -0.5,14.5 Z"/></g>
<g><path style="opacity:1" fill="#ec6a18" d="M 20.5,44.5 C 20.5,45.5 20.5,46.5 20.5,47.5C 19.5,47.5 18.5,47.5 17.5,47.5C 17.5,45.5 17.5,43.5 17.5,41.5C 18.5,41.5 19.5,41.5 20.5,41.5C 20.5,42.5 20.5,43.5 20.5,44.5 Z"/></g>
<g><path style="opacity:1" fill="#f9af00" d="M 20.5,44.5 C 22.5,44.5 24.5,44.5 26.5,44.5C 26.5,45.5 26.5,46.5 26.5,47.5C 24.5,47.5 22.5,47.5 20.5,47.5C 20.5,46.5 20.5,45.5 20.5,44.5 Z"/></g>
<g><path style="opacity:1" fill="#f9af00" d="M 32.5,47.5 C 31.5,47.5 30.5,47.5 29.5,47.5C 29.5,46.5 29.5,45.5 29.5,44.5C 30.5,44.5 31.5,44.5 32.5,44.5C 32.5,45.5 32.5,46.5 32.5,47.5 Z"/></g>
</svg>
